<svg xmlns="http://www.w3.org/2000/svg" viewBox="0 0 512 512"><rect width="512" height="512" rx="112" fill="#18443d"/><path d="M95 300h320l-28-93a38 38 0 0 0-36-27H161a38 38 0 0 0-36 27z" fill="#f6f2e9"/><path d="M72 294h368v84a28 28 0 0 1-28 28H100a28 28 0 0 1-28-28z" fill="#b86b24"/><circle cx="147" cy="393" r="33" fill="#133c37"/><circle cx="365" cy="393" r="33" fill="#133c37"/><path d="M169 211h130v71H148zm151 0h31a16 16 0 0 1 15 11l20 60h-66z" fill="#9cc6b7"/><text x="256" y="478" text-anchor="middle" font-family="Arial,sans-serif" font-size="42" font-weight="900" fill="#fff">BEAU</text></svg>
